# xmcd CD database file
#
# Track frame offsets:
#	150
#	21322
#	37762
#	58887
#
# Disc length: 1001 seconds
#
# Revision: 1
# Processed by: cddbd v1.5.2PL0 Copyright (c) Steve Scherf et al.
# Submitted via: CDex 1.51
#
DISCID=2c03e704
DTITLE=石嶺聡子 - 花
DYEAR=2002
DGENRE=JPop
TTITLE0=花
TTITLE1=クルーン
TTITLE2=花 （オリジナルカラオケ）
TTITLE3=クルーン （オリジナルカラオケ）
EXTD=YEAR: 2002
EXTT0=
EXTT1=
EXTT2=
EXTT3=
PLAYORDER=
